<?xml version="1.0" encoding="UTF-8" standalone="no"?>
<svg
   width="1em"
   height="1em"
   fill="currentColor"
   stroke="currentColor"
   stroke-width="0"
   aria-hidden="true"
   viewBox="0 0 24 24"
   version="1.1"
   id="svg2"
   sodipodi:docname="transliterate.svg"
   xml:space="preserve"
   inkscape:version="1.3 (0e150ed6c4, 2023-07-21)"
   inkscape:export-filename="antaraksara logo 4.png"
   inkscape:export-xdpi="3000"
   inkscape:export-ydpi="3000"
   xmlns:inkscape="http://www.inkscape.org/namespaces/inkscape"
   xmlns:sodipodi="http://sodipodi.sourceforge.net/DTD/sodipodi-0.dtd"
   xmlns="http://www.w3.org/2000/svg"
   xmlns:svg="http://www.w3.org/2000/svg"><defs
     id="defs2"><style
       type="text/css"
       id="style1">&#10;   <![CDATA[
    .fil0 {fill:#1F1A17;fill-rule:nonzero}
   ]]>&#10;  </style><style
       type="text/css"
       id="style1-6">&#10;   <![CDATA[
    .fil0 {fill:#1F1A17;fill-rule:nonzero}
   ]]>&#10;  </style><filter
       id="mask-powermask-path-effect57_inverse"
       inkscape:label="filtermask-powermask-path-effect57"
       style="color-interpolation-filters:sRGB"
       height="100"
       width="100"
       x="-50"
       y="-50"><feColorMatrix
         id="mask-powermask-path-effect57_primitive1"
         values="1"
         type="saturate"
         result="fbSourceGraphic" /><feColorMatrix
         id="mask-powermask-path-effect57_primitive2"
         values="-1 0 0 0 1 0 -1 0 0 1 0 0 -1 0 1 0 0 0 1 0 "
         in="fbSourceGraphic" /></filter></defs><sodipodi:namedview
     id="namedview2"
     pagecolor="#505050"
     bordercolor="#ffffff"
     borderopacity="1"
     inkscape:showpageshadow="0"
     inkscape:pageopacity="0"
     inkscape:pagecheckerboard="1"
     inkscape:deskcolor="#d1d1d1"
     showguides="true"
     inkscape:zoom="16"
     inkscape:cx="13.46875"
     inkscape:cy="9.375"
     inkscape:window-width="1912"
     inkscape:window-height="1045"
     inkscape:window-x="4"
     inkscape:window-y="31"
     inkscape:window-maximized="0"
     inkscape:current-layer="g43"
     showgrid="false"><sodipodi:guide
       position="9.638976,1.8704081"
       orientation="0,-1"
       id="guide59"
       inkscape:locked="false" /><sodipodi:guide
       position="17.806917,22.850951"
       orientation="0,-1"
       id="guide1"
       inkscape:locked="false" /><sodipodi:guide
       position="8.8713506,-0.70691419"
       orientation="0.9598922,-0.28036935"
       id="guide7"
       inkscape:locked="false" /></sodipodi:namedview><path
     style="display:none;stroke-width:0"
     d="m 12.46356,14.365228 -1.945931,-1.922949 0.02299,-0.02299 a 13.422332,13.422332 0 0 0 2.842282,-5.002726 h 2.244716 V 5.8843363 H 10.264811 V 4.3521066 H 8.7325809 V 5.8843363 H 3.369777 V 7.4089049 H 11.92728 C 11.413983,8.8875065 10.601901,10.289497 9.4986958,11.515281 8.786209,10.726182 8.1963006,9.8604724 7.7289705,8.9487957 H 6.1967408 C 6.7560047,10.197563 7.5221195,11.37738 8.4797631,12.442279 l -3.8995246,3.845897 1.0878831,1.087883 3.8305742,-3.830575 2.3826172,2.382618 z"
     id="path2" /><g
     inkscape:groupmode="layer"
     id="layer3"
     inkscape:label="Layer 3" /><g
     inkscape:groupmode="layer"
     id="layer2"
     inkscape:label="Layer 2"
     style="display:none"
     transform="matrix(0.97108355,0,0,0.97108355,0.36202599,0.3346182)"><path
       id="path13"
       style="display:none;fill:none;fill-opacity:1;stroke:#ff0000;stroke-width:0.1;stroke-dasharray:none;stroke-opacity:1;paint-order:markers stroke fill"
       d="M 3.086206,-1.7457229 2.4983153,10.488649 5.2341226,22.552541 6.2427176,19.862953 12.429956,3.3636542 v -5.1093771 z"
       sodipodi:nodetypes="ccccccc" /><path
       id="path12"
       style="display:none;fill:none;fill-opacity:1;stroke:#ff0000;stroke-width:0.1;stroke-dasharray:none;stroke-opacity:1;paint-order:markers stroke fill"
       d="M 3.1410036,2.1918438 2.553113,14.426219 l 1.8066406,6.65625 3.0136595,-0.150405 5.1113429,-13.6302457 -2e-6,-5.1099745 z"
       sodipodi:nodetypes="ccccccc" /><g
       id="g21"
       transform="translate(-0.35629904,-0.05703343)"><path
         id="path5"
         style="display:inline;stroke-width:0"
         d="m 17.462531,10.36179 h -1.952442 l -4.392996,11.714654 h 1.952444 l 1.093367,-2.928665 h 4.637051 l 1.10313,2.928665 h 1.952442 z m -2.557699,6.833548 1.581478,-4.227038 1.581478,4.227038 z" /><g
         style="clip-rule:evenodd;display:none;fill:#000000;fill-opacity:1;fill-rule:evenodd;image-rendering:optimizeQuality;shape-rendering:geometricPrecision;text-rendering:geometricPrecision"
         id="g3"
         transform="matrix(1.1935919,0,0,1.1935919,-71.709357,-131.47878)"
         clip-path="none"><path
           style="clip-rule:evenodd;fill:none;fill-opacity:1;fill-rule:evenodd;stroke:#000000;stroke-width:1.63923;stroke-dasharray:none;stroke-opacity:1;paint-order:markers stroke fill;image-rendering:optimizeQuality;shape-rendering:geometricPrecision;text-rendering:geometricPrecision"
           d="m 69.7608,113.26204 v 4.71384 c 0,0 -0.0204,1.39271 -0.0204,2.60501 0,2.36543 -0.443687,3.23498 -1.669405,3.23498 -1.225718,0 -1.720271,-1.20912 -1.720271,-3.3364"
           id="path6"
           sodipodi:nodetypes="ccszc" /><path
           d="m 69.7608,115.61896 c 0,0 -0.002,3.41257 -3.246106,3.42353 -2.835241,0.01 -2.835226,-2.51569 -2.835226,-4.99266"
           style="clip-rule:evenodd;fill:none;fill-opacity:1;fill-rule:evenodd;stroke:#000000;stroke-width:1.63923;stroke-dasharray:none;stroke-opacity:1;paint-order:markers stroke fill;image-rendering:optimizeQuality;shape-rendering:geometricPrecision;text-rendering:geometricPrecision"
           id="path1-6"
           sodipodi:nodetypes="csc" /><path
           d="m 64.868487,118.3463 c -1.512017,1.2305 -1.461573,1.22936 -1.419243,4.34811"
           style="clip-rule:evenodd;fill:none;fill-opacity:1;fill-rule:evenodd;stroke:#000000;stroke-width:1.63923;stroke-dasharray:none;stroke-opacity:1;paint-order:markers stroke fill;image-rendering:optimizeQuality;shape-rendering:geometricPrecision;text-rendering:geometricPrecision"
           id="path1-2"
           sodipodi:nodetypes="cc" /><path
           id="path1-2-9-3"
           style="clip-rule:evenodd;display:inline;fill:none;fill-opacity:1;fill-rule:evenodd;stroke:#000000;stroke-width:0.839669;stroke-dasharray:none;stroke-opacity:1;paint-order:markers stroke fill;image-rendering:optimizeQuality;shape-rendering:geometricPrecision;text-rendering:geometricPrecision"
           d="m 64.648664,113.30246 c 0,1.27285 -1.938392,1.29949 -1.938392,0"
           sodipodi:nodetypes="cc" /></g><path
         id="path15"
         style="display:none;stroke-width:0"
         d="M 15.464347,1.9852023 12.340823,4.587804 15.464347,7.1924171 V 5.6296492 h 4.688304 L 18.06896,3.5479701 h -2.604613 z m 2.604613,4.1653696 v 2.0836904 h -1.562767 l 2.604613,3.1235247 2.602601,-3.1235247 H 20.152651 V 6.1505719 Z" /><path
         id="path23"
         style="display:none;stroke-width:0"
         d="m 15.464347,1.9852023 -3.123524,2.6026017 3.123524,2.6046131 c 0,0 0,-0.5213199 0,-1.5627679 1.463179,0 1.642756,-0.1384729 2.166955,0.3738648 0.541912,0.5296503 0.437658,0.7474903 0.437658,2.2307483 h -1.562767 l 2.604613,3.1235247 2.602601,-3.1235247 h -1.560756 c 0,-1.8684094 0.154451,-2.657653 -0.851515,-3.750749 C 18.29517,3.3904173 17.438178,3.5479701 15.464347,3.5479701 Z"
         sodipodi:nodetypes="ccccaccccczcc" /><g
         style="clip-rule:evenodd;display:none;fill-rule:evenodd;image-rendering:optimizeQuality;shape-rendering:geometricPrecision;text-rendering:geometricPrecision"
         id="g23"
         transform="matrix(1.0297775,0,0,1.0297775,-69.918003,-81.169973)" /><path
         id="path24"
         style="display:inline;stroke-width:0"
         d="m 16.960581,2.1315923 -3.123524,2.6026017 3.123524,2.6046131 c 0,0 0,-0.5213199 0,-1.5627679 1.463179,0 1.642756,-0.1384729 2.166955,0.3738648 0.541912,0.5296503 0.437658,0.7474903 0.437658,2.2307483 h -1.562767 l 2.604613,3.1235247 2.602601,-3.1235247 h -1.560756 c 0,-1.8684094 0.154451,-2.657653 -0.851515,-3.750749 -1.005966,-1.093096 -1.862958,-0.9355432 -3.836789,-0.9355432 z"
         sodipodi:nodetypes="ccccaccccczcc" /><path
         id="path28"
         style="color:#000000;clip-rule:evenodd;display:inline;fill:#000000;fill-opacity:1;fill-rule:evenodd;stroke-width:0;-inkscape-stroke:none;paint-order:markers stroke fill;image-rendering:optimizeQuality;shape-rendering:geometricPrecision;text-rendering:geometricPrecision"
         d="m 10.578938,3.7088709 v 2.8137855 c 0,0 -0.01577,0.8268369 -0.392201,1.6190835 C 9.8103128,8.9339865 9.2717105,9.6247062 7.6786663,9.6300893 6.9778799,9.6324765 6.5629599,9.4875267 6.2788122,9.2921954 5.9946633,9.0968641 5.7981623,8.8239851 5.6372124,8.3971805 5.3486233,7.6318971 5.2884675,6.4153883 5.279204,5.1067103 5.3300511,5.0712606 5.3787257,5.0340205 5.4260278,4.9921254 5.7452014,4.7090174 5.9549955,4.2662186 5.9549955,3.7592047 H 4.9533761 c 0,0.2526356 -0.078455,0.3830475 -0.1930838,0.4847176 C 4.6456598,4.3456164 4.4720554,4.4076235 4.2936743,4.4088529 4.1152956,4.4100465 3.9473154,4.3489346 3.8351023,4.2499619 3.7228927,4.1510132 3.6440297,4.0223917 3.6440297,3.7592047 H 2.6403991 c 0,0.5123493 0.2093847,0.9571891 0.5309789,1.2409655 0.046801,0.041298 0.096693,0.079851 0.1468238,0.1145849 -0.00109,1.3389714 0.019026,2.726689 0.4887424,3.9722857 0.095571,0.2534473 0.2132961,0.5033019 0.3580084,0.7401583 C 3.7384225,10.241423 3.4207349,10.66676 3.2417737,11.2351 2.9494499,12.16344 3.0194768,13.124127 3.0446675,14.980114 l 1.9569799,-0.02411 c -0.02534,-1.866527 -0.011578,-2.764801 0.1045825,-3.133585 0.073752,-0.234218 0.1897608,-0.3949 0.4927649,-0.667743 0.5913591,0.291153 1.2945339,0.435208 2.0857015,0.432427 1.2011557,-0.0036 2.1557213,-0.382582 2.8781477,-0.921179 -0.0053,0.546021 -0.01003,1.161126 -0.01003,1.777975 0,1.350513 -0.163108,2.204767 -0.337897,2.544284 -0.174789,0.339517 -0.175626,0.339899 -0.6757911,0.339899 -0.4098221,0 -0.4803527,-0.04631 -0.6959034,-0.48874 C 8.6276757,14.396961 8.4651049,13.516962 8.4651049,12.323227 H 6.5081251 c 0,1.345357 0.1298807,2.45893 0.5752277,3.372923 0.4453459,0.913993 1.402597,1.58891 2.4557771,1.58891 0.9628411,0 1.9598001,-0.516599 2.4155531,-1.401862 0.455752,-0.885275 0.557126,-1.966455 0.557126,-3.439299 0,-1.436011 0.02212,-3.0933489 0.02212,-3.0933489 v -0.00597 -5.6356158 z" /></g></g><g
     inkscape:groupmode="layer"
     id="g43"
     inkscape:label="Layer 2 copy"
     style="display:inline"
     transform="matrix(0.97108355,0,0,0.97108355,0.36202599,0.3346182)"><path
       id="path45"
       style="display:none;fill:#000000;fill-opacity:1;stroke:#000000;stroke-width:1.8536;stroke-linecap:round;stroke-linejoin:round;stroke-dasharray:none;stroke-opacity:1;paint-order:stroke markers fill"
       d="M 0.93251722,0.83868252 V 19.270493 H 10.118643 l 5.38364,-18.43181048 z"
       sodipodi:nodetypes="ccccc" /><path
       id="path4"
       style="color:#000000;fill:#000000;stroke-linecap:round;stroke-linejoin:round;-inkscape-stroke:none;paint-order:stroke markers fill"
       d="m 5.608753,-0.09518306 c -1.263932,9.4012e-4 -2.2721108,0.0030312 -2.7112111,0.0080451 C 1.3467438,-0.08765807 0.00531521,0.83868252 0.00531521,2.8392806 V 17.114246 c 0,1.689193 1.16241899,3.082417 2.48420059,3.082417 h 7.6305472 c 0.410449,-0.001 0.771331,-0.271913 0.886977,-0.665735 L 16.393259,1.0975085 c 0.171699,-0.59308063 -0.273566,-1.18509003 -0.890999,-1.18464642 0,0 -6.1017111,-0.01086549 -9.893507,-0.0080451 z M 8.8127287,2.1876245 h 1.9549683 v 5.6336071 0.00805 c 0,0 -0.02212,1.6573359 -0.02212,3.0933554 0,1.472839 -0.101374,2.554024 -0.557126,3.439296 -0.4557508,0.88526 -1.4527144,1.399854 -2.4155522,1.399854 -1.0531771,0 -2.0104325,-0.672914 -2.455778,-1.586904 -0.4453527,-0.914 -0.5752313,-2.027577 -0.5752313,-3.372928 H 6.698869 c 0,1.193732 0.1625711,2.071725 0.3781215,2.514105 0.215551,0.442418 0.2860822,0.490753 0.6959043,0.490753 0.5001637,0 0.5010022,-3.89e-4 0.6757915,-0.339907 0.1747878,-0.339514 0.3378957,-1.193767 0.3378957,-2.544274 0,-0.656631 0.00433,-1.3264521 0.010056,-1.8926186 C 8.2934386,9.3762735 7.6541154,9.6108858 6.9382118,9.6132858 6.1386795,9.6162928 5.4036263,9.3967579 4.8645778,8.9435281 4.5938363,8.7158872 4.3857358,8.4466148 4.2229782,8.1551047 4.1588401,8.2488611 4.115847,8.3397954 4.0821883,8.4467409 3.9661589,8.8155241 3.9502502,9.7137999 3.9755902,11.580322 L 2.0186107,11.60848 C 1.99342,9.7524969 1.9233948,8.7877949 2.2157165,7.859446 2.4605073,7.0820617 2.9662059,6.5718048 3.655796,5.9929742 3.5889663,5.2266429 3.6026165,4.4173448 3.6095365,3.5915009 3.5596499,3.5567678 3.511238,3.5199287 3.464724,3.478869 3.143131,3.1950932 2.933745,2.7482432 2.933745,2.2358953 h 1.0016195 c 0,0.2631865 0.078863,0.3938163 0.191072,0.4927647 C 4.2386506,2.827633 4.4106526,2.888745 4.5890319,2.8875514 4.7674112,2.8863214 4.9390066,2.8223082 5.0536385,2.7206148 5.1682732,2.618945 5.2487331,2.4885304 5.2487331,2.2358953 h 1.0016195 c 0,0.5070125 -0.2118051,0.94981 -0.530979,1.2329172 -0.047308,0.041895 -0.098072,0.081205 -0.148835,0.1166545 -0.00122,1.3103691 0.00101,2.4726324 0.1830268,3.1577162 C 5.8552197,7.125776 5.985243,7.3287465 6.1236417,7.4451214 6.2620408,7.5615321 6.458931,7.6574998 6.9301667,7.6563062 7.3331245,7.6548381 7.5669391,7.5403826 7.8050753,7.3304782 8.0432118,7.1205737 8.2586038,6.7892837 8.418517,6.423389 8.7286388,5.7137769 8.8080737,4.9777871 8.8127287,4.9330274 Z"
       sodipodi:nodetypes="scsscccccsccccscsscccsssccsccccccccccccccccccccsccc" /><path
       id="path34"
       style="display:inline;stroke-width:0"
       d="M 15.690052,9.4131101 11.568191,20.407687 h 1.830956 l 1.026043,-2.748644 h 4.354046 l 1.034888,2.748644 H 21.64508 L 17.523219,9.4131101 Z m 0.917689,2.4456959 1.483782,3.96707 h -2.969775 z" /><g
       style="clip-rule:evenodd;display:none;fill:#000000;fill-opacity:1;fill-rule:evenodd;image-rendering:optimizeQuality;shape-rendering:geometricPrecision;text-rendering:geometricPrecision"
       id="g38"
       transform="matrix(1.1935919,0,0,1.1935919,-73.304584,-132.65876)"
       clip-path="none"><path
         style="clip-rule:evenodd;fill:none;fill-opacity:1;fill-rule:evenodd;stroke:#000000;stroke-width:1.63923;stroke-dasharray:none;stroke-opacity:1;paint-order:markers stroke fill;image-rendering:optimizeQuality;shape-rendering:geometricPrecision;text-rendering:geometricPrecision"
         d="m 69.7608,113.26204 v 4.71384 c 0,0 -0.0204,1.39271 -0.0204,2.60501 0,2.36543 -0.443687,3.23498 -1.669405,3.23498 -1.225718,0 -1.720271,-1.20912 -1.720271,-3.3364"
         id="path35"
         sodipodi:nodetypes="ccszc" /><path
         d="m 69.7608,115.61896 c 0,0 -0.264096,3.03643 -2.393425,3.04421 -2.129329,0.008 -1.962397,-2.13637 -1.962397,-4.61334"
         style="clip-rule:evenodd;fill:none;fill-opacity:1;fill-rule:evenodd;stroke:#000000;stroke-width:1.63923;stroke-dasharray:none;stroke-opacity:1;paint-order:markers stroke fill;image-rendering:optimizeQuality;shape-rendering:geometricPrecision;text-rendering:geometricPrecision"
         id="path36"
         sodipodi:nodetypes="czc" /><path
         d="m 65.489269,116.79446 c -1.512017,1.2305 -1.461573,1.22936 -1.419243,4.34811"
         style="clip-rule:evenodd;fill:none;fill-opacity:1;fill-rule:evenodd;stroke:#000000;stroke-width:1.63923;stroke-dasharray:none;stroke-opacity:1;paint-order:markers stroke fill;image-rendering:optimizeQuality;shape-rendering:geometricPrecision;text-rendering:geometricPrecision"
         id="path37"
         sodipodi:nodetypes="cc" /><path
         id="path38"
         style="clip-rule:evenodd;display:inline;fill:none;fill-opacity:1;fill-rule:evenodd;stroke:#000000;stroke-width:0.839669;stroke-dasharray:none;stroke-opacity:1;paint-order:markers stroke fill;image-rendering:optimizeQuality;shape-rendering:geometricPrecision;text-rendering:geometricPrecision"
         d="m 66.374174,113.30246 c 0,1.27285 -1.938392,1.29949 -1.938392,0"
         sodipodi:nodetypes="cc" /></g><path
       id="path1"
       style="display:none;fill:none;fill-opacity:1;stroke:#000000;stroke-width:1.85263;stroke-linecap:round;stroke-linejoin:round;stroke-dasharray:none;stroke-opacity:1;paint-order:stroke markers fill"
       d="M 23.099422,23.095731 V 4.6639206 l -8.368227,-1e-7 -5.3836404,18.4318105 z"
       sodipodi:nodetypes="ccccc" /><path
       id="path7"
       style="color:#000000;fill:#000000;stroke-linecap:round;stroke-linejoin:round;-inkscape-stroke:none;paint-order:stroke markers fill"
       d="M 14.729927,3.7383246 C 14.318719,3.7384967 13.95652,4.0094301 13.840939,4.4040597 L 8.4587427,22.835468 C 8.286102,23.428011 8.730551,24.021624 9.3477303,24.022126 H 21.996697 c 1.144386,-7.73e-4 2.029385,-0.926413 2.029385,-2.125928 V 6.2423735 c 0,-1.3417902 -0.66614,-2.5040489 -2.38136,-2.5040489 z m -0.09654,1.3757184 c 0.03517,3.28e-4 0.09322,0.044248 0.233309,0.044248 h 6.283252 c 1.558649,0 1.289233,0.56269 1.289233,1.7819978 V 21.164091 c 0,1.09002 0.160737,1.279883 -0.879187,1.279883 l -10.772645,0 c -1.2494264,0 0.08785,-2.36792 0.219691,-2.913046 L 13.983631,7.2233338 c 0,0 0.649756,-2.1092908 0.649754,-2.1092908 z"
       sodipodi:nodetypes="cccccssscsssssssscss" /></g></svg>
